<svg width="65" height="64" viewBox="0 0 65 64" fill="none" xmlns="http://www.w3.org/2000/svg">
<path fill-rule="evenodd" clip-rule="evenodd" d="M64.5 32C64.5 14.3269 50.1731 0 32.5 0C14.8269 0 0.5 14.3269 0.5 32C0.5 49.6731 14.8269 64 32.5 64C50.1731 64 64.5 49.6731 64.5 32ZM4.76667 32C4.76667 16.6833 17.1833 4.26667 32.5 4.26667C47.8167 4.26667 60.2333 16.6833 60.2333 32C60.2333 47.3167 47.8167 59.7333 32.5 59.7333C17.1833 59.7333 4.76667 47.3167 4.76667 32ZM32.5 41.6C34.2673 41.6 35.7 43.0327 35.7 44.8C35.7 46.5673 34.2673 48 32.5 48C30.7327 48 29.3 46.5673 29.3 44.8C29.3 43.0327 30.7327 41.6 32.5 41.6ZM32.5 16C31.0272 16 29.8333 17.1939 29.8333 18.6667V35.7333C29.8333 37.2061 31.0272 38.4 32.5 38.4C33.9728 38.4 35.1667 37.2061 35.1667 35.7333V18.6667C35.1667 17.1939 33.9728 16 32.5 16Z" fill="#FF3C3C"/>
</svg>
