<svg width="44" height="44" viewBox="0 0 44 44" fill="none" xmlns="http://www.w3.org/2000/svg">
<path fill-rule="evenodd" clip-rule="evenodd" d="M21.1323 14.9198C21.3546 14.6296 21.3368 14.2126 21.0746 13.9423C20.7862 13.645 20.3114 13.6377 20.0141 13.9261L12.2796 21.4296C12.1186 21.5671 12.0166 21.7717 12.0166 22C12.0166 22.2191 12.1105 22.4162 12.2603 22.5533L20.0141 30.0739L20.0993 30.1452C20.3962 30.3586 20.8124 30.328 21.0746 30.0577C21.363 29.7604 21.3557 29.2856 21.0584 28.9972L14.6176 22.75H31.5002L31.602 22.7432C31.9681 22.6935 32.2502 22.3797 32.2502 22C32.2502 21.5858 31.9145 21.25 31.5002 21.25H14.6162L21.0584 15.0028L21.1323 14.9198Z" fill="#060B11"/>
</svg>
